<?xml version="1.0" encoding="UTF-8"?>
<svg width="254px" height="35px" viewBox="0 0 254 35" version="1.1" xmlns="http://www.w3.org/2000/svg" xmlns:xlink="http://www.w3.org/1999/xlink">
    <!-- Generator: Sketch 42 (36781) - http://www.bohemiancoding.com/sketch -->
    <title>Logo/Long</title>
    <desc>Created with Sketch.</desc>
    <defs></defs>
    <g id="Branding" stroke="none" stroke-width="1" fill="none" fill-rule="evenodd">
        <g id="Moodboard" transform="translate(-1231.000000, -882.000000)" fill="#0F0A06">
            <g id="Logos" transform="translate(1011.000000, 597.000000)">
                <g id="Logo/Long/BW" transform="translate(220.000000, 285.000000)">
                    <g id="Logo/Long">
                        <g id="Logo/Bird-Only/BW">
                            <path d="M37.19829,25.6994873 C36.117363,26.816223 35.3219762,26.9206847 35.0746432,26.9479515 C34.4439502,27.0175455 33.961609,26.8380802 33.692935,26.7474564 C31.5731957,26.0325802 30.3747999,26.6749218 27.9030428,26.413298 C23.8065207,25.9797386 20.846369,23.5526347 20.2243174,23.0445802 C20.1618095,22.9935208 18.5480108,21.4844168 18.2509122,21.1705752 C16.8700813,19.7123525 16.1335416,18.5998277 15.3991513,17.6168673 C14.158645,15.956501 13.1286475,14.8805109 11.3984307,13.2079366 C8.32592303,10.237697 6.35692777,8.93920998 5.3929139,8.37521389 C5.46167146,8.36931856 5.53029289,8.36255542 5.59875215,8.35495396 C5.86641727,8.32661733 6.1309241,8.27961238 6.39025484,8.22302822 C7.4279726,7.99379554 8.41235034,7.57859257 9.281933,7.00660248 C8.34146427,7.44858267 7.33410119,7.70748861 6.32695744,7.78216188 C6.07499604,7.80007277 5.82487697,7.80809257 5.57611773,7.79851337 C5.32639346,7.79027079 5.07794127,7.77004307 4.83198939,7.73667178 C4.45296958,7.68503036 4.07968117,7.60494314 3.7161797,7.49732778 C2.69961907,7.0128033 1.86791321,6.6824935 0.615281161,5.95237723 C0.268921968,5.72220891 -0.0207634566,5.58110495 0.00116911644,5.22466931 C0.0543336734,4.87852574 0.503995285,4.77146139 0.593348588,4.75684752 C1.16635899,4.66323861 1.90276706,4.81320891 2.32602185,4.84595644 C2.99948344,4.89804059 3.25662093,5.02983267 3.77357167,4.95734257 C4.63069663,4.83713465 4.71154009,4.23324356 5.65977295,3.82120396 C6.95252267,3.25950594 8.58685028,3.60083762 9.56377095,4.51179802 C10.3157073,5.21299604 10.2889057,5.98374356 10.6328523,6.9871099 C11.385973,9.18413465 13.1944014,10.3890653 15.0075672,11.5971594 C15.1131185,11.6674881 15.216466,11.7344004 15.3178333,11.7981323 C15.3579734,11.8005402 15.3985385,11.8026855 15.4395181,11.8045491 C14.9918669,11.8769492 14.5379869,11.9192827 14.0818678,11.9301282 C14.8408226,11.9862668 15.6099102,11.9552569 16.3703564,11.8379896 C16.5414334,11.8115425 16.7119868,11.780454 16.8818251,11.7448453 C17.1463916,11.7105339 17.4199272,11.6619208 17.7007555,11.5959653 C20.3205575,10.9805792 21.862856,9.25788119 22.3723936,8.63309406 C24.5982865,6.41437129 26.6658263,5.42686634 28.1406603,4.93507426 C29.1862738,4.58639109 30.6381224,4.4005099 33.4922081,3.77665842 C36.7831907,3.05728218 38.0840116,2.62269802 39.6596476,1.77616337 C41.5182577,0.777564356 41.9557248,0 41.9557248,0 C41.795617,0.552519802 41.5693168,1.15761386 41.2462938,1.78378218 C40.0495649,4.10391089 38.2042021,5.39701485 37.1110826,6.02665842 C37.4670044,5.93946535 37.9069718,5.79742574 38.3831719,5.55883663 C38.9535065,5.27306436 39.3896576,4.94193564 39.6991263,4.66774752 C39.3773754,5.2894604 38.9440755,6.00366832 38.3612393,6.7395297 C37.4300261,7.91523267 36.44578,8.73138119 35.6671298,9.27565842 C36.0655569,9.15344554 36.5489508,8.96734158 37.0672175,8.67764851 C37.5002103,8.43558416 37.8573604,8.17725743 38.1419136,7.9425 C37.4119975,9.46064851 35.4873265,12.9396386 31.4522595,15.4669901 C31.0456612,15.7216571 30.641256,15.9518669 30.2416501,16.1600066 C29.9305205,16.2963312 29.6164051,16.4263713 29.29913,16.5486252 C28.8994747,16.7069718 28.4933273,16.8483876 28.0853814,16.9860163 C27.6765144,17.1204371 27.2639627,17.2446995 26.8482966,17.3597837 C26.4321479,17.4725064 26.0130165,17.5760955 25.5911654,17.6693035 C24.7469806,17.8527342 23.8921367,17.9955312 23.030362,18.0934619 C23.8971811,18.0696252 24.7643512,18.0003876 25.6282753,17.8888233 C26.059996,17.8315708 26.4907518,17.7635361 26.9204109,17.6858332 C27.3494997,17.6057688 27.7773604,17.5159025 28.2032909,17.4152094 C28.394591,17.3684227 28.5858733,17.3207333 28.7767139,17.2709265 C29.4871671,17.7466595 29.8047829,18.2645187 30.309397,18.8285257 C30.8097228,19.3877287 31.512925,20.1737139 32.2454729,20.6660851 C33.9933674,21.840897 36.7971398,21.9416792 38.7590084,20.8888129 C39.3860607,20.5523376 39.6946959,20.2225901 39.8774819,20.354204 C40.1191365,20.5282062 39.9114826,21.3245616 39.4528456,22.3032653 C39.3918973,22.3506195 39.3298376,22.3967129 39.266708,22.4414866 C39.0900631,22.566952 38.9049522,22.6820361 38.7124719,22.7853579 L38.5667519,22.8606104 C38.5177107,22.8848035 38.4677044,22.9068134 38.4180052,22.9301599 C38.319177,22.978546 38.2166642,23.0173975 38.1144584,23.0590114 C37.9085554,23.1367144 37.6976956,23.2065757 37.4813966,23.2581252 C37.3737515,23.2872639 37.2642203,23.3067342 37.1546013,23.3297688 C37.0444559,23.3476797 36.9339157,23.3675064 36.8223228,23.3795807 C36.3763458,23.4346054 35.9196658,23.4357193 35.464872,23.3828777 C35.9054974,23.5085658 36.3647216,23.5836847 36.8305694,23.6022193 C36.947163,23.6085015 37.0638881,23.6068975 37.1811835,23.6069421 C37.2980403,23.6018183 37.4158182,23.6000361 37.5328943,23.5881401 C37.7679676,23.5711649 38.0021197,23.5343183 38.2354384,23.4873134 C38.3513302,23.4609817 38.4685378,23.4368777 38.582982,23.4025262 C38.6405331,23.3862193 38.6986105,23.3710708 38.7559423,23.3536054 L38.9271918,23.2978233 C38.9301413,23.296811 38.9330901,23.2957962 38.9360383,23.2947789 C38.619444,23.8489713 38.2508543,24.4143214 37.8593782,24.9262485 C37.8097993,24.9910843 37.760633,25.0538194 37.7118985,25.1145228 C37.4671789,25.1718312 37.2169244,25.2052759 36.9650249,25.2093252 C36.8863308,25.2088797 36.8061014,25.212355 36.7278022,25.2036223 L36.6088837,25.1947114 C36.5686594,25.1929738 36.5306283,25.1832609 36.491062,25.1779589 L36.3726261,25.1588896 C36.3328842,25.1525183 36.2952918,25.1398649 36.2561641,25.1306421 L36.139088,25.100345 C36.1001358,25.0896965 36.0621047,25.076152 36.0238543,25.0627411 C35.7192547,24.9536718 35.4308414,24.7759441 35.1916447,24.5326322 C35.3732903,24.8222807 35.6280152,25.0739243 35.927658,25.2629688 C35.9652066,25.2863153 36.0029745,25.3099738 36.0420145,25.3307361 L36.1604942,25.391553 C36.2004554,25.4110233 36.2395831,25.4340579 36.2808163,25.4506322 L36.4051301,25.5005332 C36.4469336,25.5160827 36.4881669,25.5361322 36.531067,25.5479837 L36.6596796,25.5872807 C36.7456114,25.6162411 36.8332978,25.632548 36.9213352,25.6526866 C37.013,25.6717406 37.1054021,25.6872817 37.19829,25.6994873 Z" id="Combined-Shape"></path>
                        </g>
                        <g id="Logo/Word-Only/BW" transform="translate(62.687500, 2.121212)">
                            <g id="Logo/Word-Only">
                                <path d="M0.975419413,1.94345591 C0.567929902,1.94345591 0.364188203,1.7633359 0.364188203,1.40309049 C0.364188203,1.02337235 0.567929902,0.833516129 0.975419413,0.833516129 L13.5493186,0.833516129 C13.9568081,0.833516129 14.1605498,1.02337235 14.1605498,1.40309049 C14.1605498,1.7633359 13.9568081,1.94345591 13.5493186,1.94345591 L9.27070012,1.94345591 L9.27070012,3.72520134 L11.715625,3.72520134 C12.0066889,3.72520134 12.2419621,3.74467377 12.4214515,3.78361922 C12.6009409,3.82256467 12.7416197,3.89315224 12.8434921,3.99538405 C12.9453645,4.09761586 13.0157039,4.24122505 13.0545124,4.42621594 C13.0933209,4.61120682 13.1127249,4.84487602 13.1127249,5.12723053 L13.1127249,11.9183094 C13.1127249,12.2104003 13.0908954,12.4489376 13.0472358,12.6339285 C13.0035762,12.8189194 12.9283858,12.9600945 12.8216624,13.0574582 C12.7149389,13.1548218 12.5718347,13.2205412 12.3923452,13.2546185 C12.2128558,13.2886958 11.9872846,13.3057342 11.715625,13.3057342 L2.70724118,13.3057342 C2.4355815,13.3057342 2.21243583,13.2886958 2.03779747,13.2546185 C1.86315911,13.2205412 1.72248031,13.1523877 1.61575687,13.0501559 C1.50903343,12.9479241 1.43384304,12.806749 1.39018345,12.6266263 C1.34652386,12.4465036 1.32469439,12.2104003 1.32469439,11.9183094 L1.32469439,5.12723053 C1.32469439,4.84487602 1.34409836,4.61120682 1.38290689,4.42621594 C1.42171541,4.24122505 1.4944803,4.09761586 1.60120375,3.99538405 C1.70792719,3.89315224 1.84860598,3.82256467 2.02324434,3.78361922 C2.19788271,3.74467377 2.42587937,3.72520134 2.70724118,3.72520134 L4.86110354,3.72520134 L4.86110354,1.94345591 L0.975419413,1.94345591 Z M11.7301781,12.1811899 C11.9048165,12.1811899 11.9921343,12.1179045 11.9921343,11.9913318 L11.9921343,9.85907906 C11.5943469,9.86881542 11.2111185,9.87368353 10.8424375,9.87368353 C10.4737565,9.87368353 10.1196341,9.86394731 9.78005947,9.84447459 C9.41137848,9.8152655 9.11789341,9.76658442 8.89959546,9.69842988 C8.68129751,9.63027534 8.51636375,9.53291318 8.40478924,9.40634047 C8.29321473,9.27976775 8.22044984,9.11425207 8.18649238,8.90978846 C8.15253492,8.70532485 8.13555645,8.44731511 8.13555645,8.13575151 L8.13555645,4.83514112 L5.98169409,4.83514112 C5.96228982,5.69194102 5.90650341,6.40755293 5.81433316,6.98199832 C5.72216291,7.55644371 5.57178214,8.04568859 5.36318632,8.44974763 C5.15459049,8.85380668 4.8780839,9.1921402 4.53365824,9.46475835 C4.18923259,9.7373765 3.75506873,10.0002543 3.23115364,10.2533998 C2.86247266,10.4286543 2.59566805,10.4627311 2.43073182,10.3556311 L2.43073182,11.9913318 C2.43073182,12.1179045 2.5131987,12.1811899 2.67813493,12.1811899 L11.7301781,12.1811899 Z M9.27070012,4.83514112 L9.27070012,7.91668445 C9.27070012,8.07246625 9.28040211,8.20390517 9.29980637,8.31100516 C9.31921063,8.41810515 9.37499705,8.50573109 9.4671673,8.57388563 C9.55933754,8.64204017 9.70001634,8.69072125 9.8892079,8.71993034 C10.0783995,8.74913943 10.3427786,8.76374375 10.6823532,8.76374375 C10.8375873,8.76374375 11.0292015,8.7613097 11.2572016,8.75644152 C11.4852016,8.75157334 11.7301768,8.73940307 11.9921343,8.71993034 L11.9921343,5.03960371 C11.9921343,4.90329463 11.9048165,4.83514112 11.7301781,4.83514112 L9.27070012,4.83514112 Z M2.67813493,4.83514112 C2.61022001,4.83514112 2.55200809,4.8521795 2.50349744,4.88625677 C2.45498678,4.92033403 2.43073182,4.97144917 2.43073182,5.03960371 L2.43073182,9.43554941 C2.48894461,9.39660396 2.5617095,9.35279098 2.64902868,9.30410917 C3.08562458,9.09964556 3.44459805,8.89518501 3.72595986,8.6907214 C4.00732166,8.48625779 4.23046733,8.22581399 4.39540357,7.90938221 C4.5603398,7.59295043 4.67676362,7.1913315 4.74467854,6.70451337 C4.81259346,6.21769525 4.8514014,5.59457739 4.86110354,4.83514112 L2.67813493,4.83514112 Z M5.98169409,3.72520134 L8.13555645,3.72520134 L8.13555645,1.94345591 L5.98169409,1.94345591 L5.98169409,3.72520134 Z M13.9422529,28.2270096 C13.9228487,28.7040914 13.8937427,29.1616935 13.8549342,29.5998298 C13.8161257,30.0379662 13.7530628,30.480964 13.6657436,30.9288367 C13.5299138,31.5714366 13.2776621,32.038775 12.9089811,32.3308659 C12.5403002,32.6229568 12.0503499,32.769 11.4391156,32.769 C11.2353709,32.769 11.0219272,32.7519616 10.7987781,32.7178844 C10.5756291,32.6838071 10.3330795,32.6375601 10.0711219,32.5791419 C9.81886653,32.5207237 9.64908179,32.4257956 9.5617626,32.2943547 C9.47444342,32.1629138 9.45503945,31.9998322 9.50355011,31.8051049 C9.57146503,31.4643322 9.82856765,31.3474976 10.2748657,31.4545976 C10.8084829,31.5811703 11.2305193,31.6444558 11.5409875,31.6444558 C11.948477,31.6444558 12.2443875,31.4984125 12.428728,31.2063216 C12.6130685,30.9142308 12.7343434,30.4517605 12.7925561,29.8188969 C12.7149391,29.8578424 12.6033663,29.8773148 12.4578343,29.8773148 L8.51393767,29.8773148 C8.30049079,29.8773148 8.15011001,29.8383699 8.06279083,29.760479 C7.97547165,29.6825881 7.93181271,29.5560173 7.93181271,29.3807628 C7.93181271,29.1860355 7.97547165,29.0472944 8.06279083,28.9645354 C8.15011001,28.8817763 8.30049079,28.8403974 8.51393767,28.8403974 L12.4141749,28.8403974 C12.6082175,28.8403974 12.7537473,28.8744741 12.8507686,28.9426287 C12.879875,28.5921196 12.894428,28.295165 12.894428,28.0517559 C12.894428,27.6915105 12.8677476,27.4651435 12.8143858,27.3726481 C12.7610241,27.2801526 12.6761317,27.2339056 12.5597062,27.2339056 L9.41623136,27.2339056 C8.90201841,27.2339056 8.54789593,27.1268072 8.35385331,26.9126072 C8.15981068,26.6984072 8.06279083,26.3332991 8.06279083,25.8172719 L8.06279083,21.3483039 C8.06279083,20.9101676 8.14283221,20.5986086 8.30291737,20.4136177 C8.46300254,20.2286268 8.76618959,20.1361328 9.21248763,20.1361328 L9.72184697,20.1361328 C9.81886828,19.9608783 9.90618615,19.8002307 9.9838032,19.6541853 C10.0614203,19.5081398 10.1244832,19.3718328 10.1729938,19.2452601 C10.2312066,19.108951 10.306397,19.0091548 10.3985672,18.9458684 C10.4907375,18.8825821 10.6241398,18.8752799 10.7987781,18.9239617 C10.9928208,18.9726435 11.1237976,19.0554014 11.1917125,19.1722377 C11.2596274,19.2890741 11.2547764,19.4399854 11.1771594,19.6249763 L11.1626063,19.6249763 C11.1237977,19.7126036 11.0825643,19.8002295 11.0389047,19.8878568 C10.9952451,19.9754841 10.9491607,20.0582419 10.90065,20.1361328 L12.0212406,20.1361328 C12.2540917,20.1361328 12.4529824,20.1556052 12.6179187,20.1945507 C12.7828549,20.2334961 12.9162572,20.318688 13.0181296,20.4501289 C13.1200019,20.5815698 13.1927668,20.7787282 13.2364264,21.04161 C13.280086,21.3044918 13.3019155,21.6549956 13.3019155,22.0931319 C13.3019155,22.36575 13.294639,22.6700068 13.2800858,23.0059113 C13.2655326,23.3418158 13.2485541,23.621732 13.2291499,23.8456684 C13.1806392,24.4980047 13.0520879,24.9945517 12.8434921,25.3353244 C12.6348963,25.6760971 12.3026032,25.851349 11.8466031,25.8610853 C11.6816669,25.8610853 11.4852016,25.844047 11.2572016,25.8099697 C11.0292015,25.7758924 10.7260144,25.7199092 10.3476313,25.6420183 C10.1147802,25.5933365 9.96682487,25.5008424 9.90376102,25.3645333 C9.84069717,25.2282242 9.83342068,25.0773129 9.88193133,24.9117947 C9.97895265,24.6002311 10.2263533,24.502869 10.6241407,24.6197053 C10.8569918,24.6878599 11.0510315,24.7365409 11.2062656,24.76575 C11.3614997,24.7949591 11.5070295,24.8144315 11.6428593,24.8241679 C11.7592849,24.8339043 11.8514538,24.8095637 11.9193687,24.7511456 C11.9872836,24.6927274 12.0406445,24.5953652 12.0794531,24.4590561 C12.1182616,24.3227471 12.1473675,24.1426271 12.1667718,23.9186907 C12.1861761,23.6947544 12.20558,23.4221403 12.2249843,23.1008404 C12.2346864,22.9353222 12.2395374,22.7673725 12.2395374,22.5969861 L12.2395374,22.1661542 C12.2395374,21.9227452 12.2346864,21.735323 12.2249843,21.6038821 C12.2152822,21.4724412 12.1958782,21.375079 12.1667718,21.3117927 C12.1376654,21.2485063 12.1037085,21.2095615 12.0648999,21.1949569 C12.0260914,21.1803524 11.9775815,21.1730502 11.9193687,21.1730502 L9.27070012,21.1730502 C9.21248734,21.1730502 9.1688284,21.1876545 9.13972201,21.2168636 C9.11061561,21.2460727 9.09606263,21.3093581 9.09606263,21.4067217 L9.09606263,25.7296451 C9.09606263,25.9438451 9.13001958,26.075284 9.1979345,26.1239658 C9.26584942,26.1726476 9.44533616,26.1969882 9.73640009,26.1969882 L12.6761312,26.1969882 C12.889578,26.1969882 13.0787668,26.2188946 13.243703,26.2627083 C13.4086392,26.3065219 13.544467,26.399016 13.6511905,26.5401932 C13.7579139,26.6813705 13.8355298,26.885831 13.8840404,27.153581 C13.9325511,27.421331 13.9519551,27.7791369 13.9422529,28.2270096 Z M3.78417236,21.1000279 C3.59012973,21.1000279 3.45187644,21.0562149 3.36940832,20.9685876 C3.2869402,20.8809604 3.24570677,20.7446533 3.24570677,20.5596624 C3.24570677,20.3746716 3.2869402,20.2383645 3.36940832,20.1507373 C3.45187644,20.06311 3.59012973,20.019297 3.78417236,20.019297 L7.30602838,20.019297 C7.500071,20.019297 7.6358988,20.06311 7.71351585,20.1507373 C7.7911329,20.2383645 7.82994084,20.3746716 7.82994084,20.5596624 C7.82994084,20.7446533 7.7911329,20.8809604 7.71351585,20.9685876 C7.6358988,21.0562149 7.500071,21.1000279 7.30602838,21.1000279 L6.09811908,21.1000279 L6.09811908,29.2347181 C6.33097023,29.0497272 6.56381789,28.8452666 6.79666903,28.6213303 C6.99071166,28.4363394 7.1653474,28.326807 7.3205815,28.2927297 C7.4758156,28.2586524 7.62134538,28.3195038 7.75717522,28.4752856 C7.89300506,28.6018583 7.94879148,28.7503356 7.92453615,28.920722 C7.90028082,29.0911083 7.79113348,29.259058 7.59709086,29.4245762 C7.29632479,29.6777216 7.01254171,29.9089568 6.7457331,30.1182886 C6.47892449,30.3276204 6.2024179,30.5247787 5.91620503,30.7097696 C5.62999216,30.8947605 5.32195411,31.0748805 4.99208165,31.250135 C4.66220919,31.4253896 4.28868274,31.6103777 3.8714911,31.8051049 C3.61923569,31.9219413 3.42277048,31.956018 3.28208958,31.9073362 C3.14140867,31.8586544 3.03711233,31.751556 2.96919741,31.5860379 C2.91098462,31.4205197 2.91341012,31.2744765 2.97647397,31.1479037 C3.03953782,31.021331 3.1923441,30.9044964 3.43489738,30.7973964 C3.74536558,30.6610874 4.02914866,30.5296484 4.28625514,30.4030757 C4.54336161,30.276503 4.78348576,30.1450641 5.00663478,30.008755 L5.00663478,21.1000279 L3.78417236,21.1000279 Z M3.43489738,27.8472934 C3.28936541,28.2659569 3.14868662,28.6578397 3.01285678,29.0229532 C2.87702694,29.3880668 2.73634815,29.7434387 2.59081618,30.0890796 C2.44528421,30.4347205 2.29490344,30.7754881 2.13966934,31.1113926 C1.98443524,31.4472971 1.81465049,31.7904987 1.63031,32.1410078 C1.49448016,32.4038895 1.35380137,32.559669 1.2082694,32.6083508 C1.06273743,32.6570326 0.89295268,32.6132197 0.698910056,32.4769106 C0.553378088,32.3698106 0.487889684,32.2432398 0.502442881,32.0971943 C0.516996078,31.9511489 0.59703746,31.7564246 0.742569428,31.5130155 C1.11125041,30.8996247 1.42899045,30.2765068 1.69579905,29.6436433 C1.96260766,29.0107797 2.2075828,28.304904 2.43073182,27.525995 C2.54715739,27.0781223 2.77515406,26.8980023 3.11472865,26.9856296 C3.32817554,27.0343114 3.45430135,27.1292395 3.49310987,27.2704168 C3.5319184,27.411594 3.51251443,27.6038843 3.43489738,27.8472934 Z M3.62408799,22.2537811 C3.48825815,22.3900901 3.34757936,22.4509415 3.20204739,22.4363369 C3.05651542,22.4217324 2.89643266,22.3122 2.7217943,22.1077363 C2.19787921,21.5040819 1.65456802,20.9637219 1.09184441,20.4866401 C0.897801781,20.3211219 0.791079939,20.1726446 0.771675676,20.0412037 C0.752271414,19.9097628 0.815334321,19.7661536 0.960866289,19.6103718 C1.07729186,19.4837991 1.19856668,19.4180797 1.32469439,19.4132115 C1.4508221,19.4083433 1.61090486,19.4935352 1.80494748,19.6687897 C2.11541568,19.9414079 2.41617724,20.2213241 2.70724118,20.5085468 C2.99830511,20.7957695 3.2796627,21.09029 3.55132237,21.3921173 C3.7162586,21.5771082 3.80357647,21.7328876 3.8132786,21.8594603 C3.82298073,21.9860331 3.75991783,22.117472 3.62408799,22.2537811 Z M3.17294115,26.0947569 C3.03711131,26.2310659 2.89643252,26.2846151 2.75090055,26.255406 C2.60536858,26.226197 2.45013681,26.1288348 2.28520058,25.9633166 C2.08145582,25.758853 1.83162969,25.532486 1.53571469,25.2842087 C1.23979969,25.0359315 0.926910649,24.790092 0.597038188,24.546683 C0.21865507,24.2740648 0.155592163,23.9868464 0.407847575,23.6850192 C0.543677412,23.5292374 0.667377729,23.4489136 0.778952238,23.4440454 C0.890526747,23.4391772 1.057886,23.519501 1.28103502,23.6850192 C1.61090748,23.9381646 1.9383495,24.1986084 2.26337089,24.4663584 C2.58839229,24.7341083 2.8479204,24.9653435 3.04196303,25.1600707 C3.20689926,25.3255889 3.30391912,25.4886705 3.33302551,25.6493205 C3.3621319,25.8099705 3.30877098,25.9584478 3.17294115,26.0947569 Z M11.8029437,23.0862359 C11.9581778,23.2420177 12.0333682,23.4002312 12.0285171,23.5608812 C12.0236661,23.7215312 11.9533267,23.8554041 11.8174968,23.9625041 C11.7107734,24.0501314 11.5846476,24.07934 11.4391156,24.050131 C11.2935836,24.0209219 11.1529048,23.9284278 11.017075,23.772646 C10.8812452,23.6168642 10.7648213,23.4829912 10.6678,23.3710231 C10.5707787,23.2590549 10.4761844,23.1519565 10.3840141,23.0497247 C10.2918439,22.9474929 10.194824,22.8452626 10.0929516,22.7430308 C9.99107925,22.640799 9.86737894,22.5263985 9.72184697,22.3998258 C9.55691074,22.2537803 9.46959287,22.102869 9.45989074,21.9470872 C9.4501886,21.7913054 9.49869853,21.6598664 9.60542198,21.5527665 C9.71214542,21.4554028 9.83342024,21.4115899 9.96925008,21.4213262 C10.1050799,21.4310626 10.2603117,21.5186885 10.43495,21.6842067 C10.5610778,21.801043 10.6750761,21.9081414 10.7769485,22.005505 C10.8788208,22.1028687 10.9806917,22.2050989 11.0825641,22.3121989 C11.1844364,22.4192989 11.2935838,22.5336995 11.4100094,22.655404 C11.5264349,22.7771085 11.6574117,22.9207177 11.8029437,23.0862359 Z" id="西-鸿"></path>
                                <path d="M47.0662498,2.63438187 L40.3377899,2.63438187 L40.3377899,29.4672264 C40.3377899,30.4936245 40.1186241,31.2010955 39.6802857,31.5896605 C39.2419474,31.9782255 38.533311,32.172505 37.5543554,32.172505 C36.1808953,32.172505 35.4941755,31.4247119 35.4941755,29.9291033 L35.4941755,2.63438187 L28.7657156,2.63438187 L28.7657156,5.82353143 C28.7657156,6.87925519 28.5502025,7.63071395 28.1191698,8.07793026 C27.6881371,8.52514657 27.0342922,8.74875137 26.1576155,8.74875137 C24.8718231,8.74875137 24.2289365,8.00095827 24.2289365,6.50534962 L24.2289365,1.90857542 C24.2289365,1.24874808 24.4444496,0.805204124 24.8754823,0.57793026 C25.306515,0.350656397 25.989582,0.237021169 26.9247038,0.237021169 L48.9072617,0.237021169 C49.8423834,0.237021169 50.5254504,0.350656397 50.9564832,0.57793026 C51.3875159,0.805204124 51.603029,1.24874808 51.603029,1.90857542 L51.603029,6.50534962 C51.603029,7.29714243 51.4459601,7.86898422 51.1318176,8.22089214 C50.8176751,8.57280005 50.3318574,8.74875137 49.6743499,8.74875137 C48.7976732,8.74875137 48.1438284,8.52514657 47.7127956,8.07793026 C47.2817629,7.63071395 47.0662498,6.87925519 47.0662498,5.82353143 L47.0662498,2.63438187 Z M62.0521278,12.6197191 L62.0521278,29.1153203 C62.0521278,29.7604848 62.0009891,30.2810075 61.8987102,30.6769039 C61.7964312,31.0728003 61.6320568,31.3807151 61.405582,31.6006575 C61.1791072,31.8206 60.8832333,31.9708917 60.5179513,32.0515373 C60.1526694,32.1321829 59.7070321,32.172505 59.1810261,32.172505 C58.4796847,32.172505 58.0048253,32.0002194 57.7564336,31.6556429 C57.5080419,31.3110664 57.3838479,30.7795468 57.3838479,30.0610681 L57.3838479,11.6739713 C57.3838479,10.9554927 57.5080419,10.423973 57.7564336,10.0793965 C58.0048253,9.73482003 58.4796847,9.56253437 59.1810261,9.56253437 C60.1599817,9.56253437 60.8832291,9.80813308 61.35079,10.2993379 C61.8183509,10.7905427 62.0521278,11.5639954 62.0521278,12.6197191 Z M57.6687663,5.82353143 C57.1281491,5.28100673 56.8578445,4.62118928 56.8578445,3.84405929 C56.8578445,3.47748854 56.9308998,3.12192025 57.0770125,2.77734375 C57.2231253,2.43276725 57.4203746,2.1358494 57.6687663,1.88658129 C57.9171581,1.63731318 58.2093793,1.43570229 58.5454386,1.28174258 C58.881498,1.12778286 59.239469,1.05080416 59.6193622,1.05080416 C59.9846442,1.05080416 60.3389623,1.12778286 60.6823274,1.28174258 C61.0256924,1.43570229 61.3215663,1.63731318 61.5699581,1.88658129 C61.8183498,2.1358494 62.0192519,2.43276725 62.1726703,2.77734375 C62.3260887,3.12192025 62.4027968,3.47748854 62.4027968,3.84405929 C62.4027968,4.22529287 62.3297415,4.58452681 62.1836287,4.9217719 C62.0375159,5.25901699 61.8366138,5.55593484 61.5809165,5.81253437 C61.3252191,6.06913389 61.0293452,6.27074478 60.6932858,6.41737308 C60.3572264,6.56400137 59.9992554,6.63731442 59.6193622,6.63731442 C58.8595758,6.63731442 58.2093836,6.36605614 57.6687663,5.82353143 Z M70.528714,30.0610681 L70.528714,11.4980182 C70.528714,10.7795396 70.6748246,10.2773452 70.9670502,9.99142 C71.2592757,9.70549481 71.7560517,9.56253437 72.4573931,9.56253437 C73.2902359,9.56253437 73.9404281,9.88511179 74.407989,10.5302763 C74.8755499,11.1754408 75.1093268,12.1431731 75.1093268,13.4335021 L75.1093268,13.74142 L75.196994,13.74142 C75.986003,12.4657538 77.041652,11.4503681 78.3639727,10.6952323 C79.6862934,9.94009657 81.2460239,9.56253437 83.0432111,9.56253437 C87.2658704,9.56253437 89.3771684,11.8279076 89.3771684,16.358722 L89.3771684,30.0610681 C89.3771684,30.7795468 89.2529744,31.3110664 89.0045827,31.6556429 C88.756191,32.0002194 88.2813316,32.172505 87.5799902,32.172505 C86.571812,32.172505 85.8412591,31.8902498 85.3883095,31.3257308 C84.9353599,30.7612119 84.7088885,29.8118079 84.7088885,28.4774904 L84.7088885,17.2164933 C84.7088885,14.1226362 83.4377263,12.5757308 80.895364,12.5757308 C80.2378564,12.5757308 79.5730533,12.7150256 78.9009345,12.9936194 C78.2288157,13.2722132 77.618804,13.6497754 77.0708811,14.1263174 C76.5229581,14.6028593 76.0736681,15.1563729 75.7229974,15.7868745 C75.3723267,16.4173762 75.196994,17.0771937 75.196994,17.7663467 L75.196994,28.9833555 C75.196994,29.62852 75.1458553,30.156374 75.0435764,30.5669332 C74.9412974,30.9774924 74.776923,31.3000698 74.5504482,31.5346751 C74.3239734,31.7692804 74.0280995,31.9342348 73.6628175,32.0295432 C73.2975355,32.1248516 72.8518983,32.172505 72.3258922,32.172505 C71.6245509,32.172505 71.1496915,32.0002194 70.9012998,31.6556429 C70.652908,31.3110664 70.528714,30.7795468 70.528714,30.0610681 Z M110.784671,27.927637 L110.65317,27.8836487 C109.674215,29.3792574 108.549163,30.4679562 107.277982,31.1497778 C106.006801,31.8315994 104.494556,32.172505 102.741203,32.172505 C101.630746,32.172505 100.651805,32.0295446 99.8043505,31.7436194 C98.9568964,31.4576942 98.24826,31.0508068 97.6784202,30.5229449 C97.1085803,29.995083 96.6812069,29.3572595 96.3962869,28.6094552 C96.111367,27.8616509 95.9689092,27.0258821 95.9689092,26.1021238 C95.9689092,25.134377 96.1332836,24.1776417 96.4620374,23.2318892 C96.7907911,22.2861367 97.3788862,21.4393709 98.2263404,20.6915666 C99.0737945,19.9437623 100.228068,19.3425953 101.689196,18.8880476 C103.150324,18.4334998 105.013234,18.2062294 107.277982,18.2062294 L110.565503,18.2062294 L110.565503,16.9525637 C110.565503,15.9261656 110.477837,15.057406 110.302501,14.3462587 C110.127166,13.6351115 109.860514,13.059604 109.502538,12.6197191 C109.144561,12.1798342 108.68066,11.8609225 108.110821,11.6629742 C107.540981,11.465026 106.861566,11.3660534 106.072557,11.3660534 C104.582207,11.3660534 103.267212,11.9965457 102.127532,13.257549 C101.163188,14.3132728 100.249997,14.8411267 99.3879312,14.8411267 C98.8765364,14.8411267 98.4856906,14.6945006 98.215382,14.401244 C97.9450733,14.1079874 97.809921,13.7414222 97.809921,13.3015373 C97.809921,12.7296869 98.0802256,12.2128299 98.6208429,11.7509508 C99.1614602,11.2890716 99.8664438,10.8968468 100.735815,10.5742646 C101.605186,10.2516823 102.584127,10.0024179 103.672667,9.82646398 C104.761207,9.65051003 105.860689,9.56253437 106.971147,9.56253437 C108.592998,9.56253437 109.937216,9.73115438 111.003839,10.0683995 C112.070462,10.4056446 112.921557,10.9115046 113.557147,11.5859948 C114.192738,12.260485 114.638375,13.1072507 114.894072,14.1263174 C115.14977,15.145384 115.277617,16.3440524 115.277617,17.7223584 L115.277617,30.0610681 C115.277617,30.7795468 115.153423,31.3110664 114.905031,31.6556429 C114.656639,32.0002194 114.196391,32.172505 113.524272,32.172505 C112.545316,32.172505 111.843986,31.8389307 111.420258,31.1717719 C110.996531,30.5046131 110.784671,29.4232457 110.784671,27.927637 Z M110.609337,20.097725 L108.001236,20.097725 C103.091847,20.097725 100.637189,21.8865634 100.637189,25.4642939 C100.637189,27.9276493 101.937573,29.1593086 104.538381,29.1593086 C105.108221,29.1593086 105.743802,29.049339 106.445143,28.8293965 C107.146485,28.6094541 107.807635,28.2795454 108.428614,27.8396605 C109.049594,27.3997756 109.568286,26.8499277 109.984708,26.1901003 C110.401129,25.530273 110.609337,24.760486 110.609337,23.8807162 L110.609337,20.097725 Z M150.93,23.7487514 C152.215793,23.7487514 152.858679,24.4965445 152.858679,25.9921531 L152.858679,30.7208921 C152.858679,31.248754 152.639514,31.6226506 152.201175,31.842593 C151.762837,32.0625355 151.083423,32.172505 150.162912,32.172505 L135.34715,32.172505 C133.97369,32.172505 133.28697,31.4247119 133.28697,29.9291033 L133.28697,2.48042293 C133.28697,1.64464162 133.440386,1.06180288 133.747223,0.731889205 C134.05406,0.401975532 134.558142,0.237021169 135.259483,0.237021169 C136.194605,0.237021169 136.906894,0.530273369 137.396372,1.11678657 C137.88585,1.70329976 138.130585,2.56839375 138.130585,3.71209448 L138.130585,29.7751443 L148.3219,29.7751443 L148.3219,26.6739713 C148.3219,25.6182476 148.537413,24.8667888 148.968446,24.4195725 C149.399479,23.9723562 150.053324,23.7487514 150.93,23.7487514 Z M163.965282,12.6197191 L163.965282,29.1153203 C163.965282,29.7604848 163.914144,30.2810075 163.811865,30.6769039 C163.709586,31.0728003 163.545211,31.3807151 163.318737,31.6006575 C163.092262,31.8206 162.796388,31.9708917 162.431106,32.0515373 C162.065824,32.1321829 161.620187,32.172505 161.094181,32.172505 C160.392839,32.172505 159.91798,32.0002194 159.669588,31.6556429 C159.421197,31.3110664 159.297003,30.7795468 159.297003,30.0610681 L159.297003,11.6739713 C159.297003,10.9554927 159.421197,10.423973 159.669588,10.0793965 C159.91798,9.73482003 160.392839,9.56253437 161.094181,9.56253437 C162.073136,9.56253437 162.796384,9.80813308 163.263945,10.2993379 C163.731506,10.7905427 163.965282,11.5639954 163.965282,12.6197191 Z M159.581921,5.82353143 C159.041304,5.28100673 158.770999,4.62118928 158.770999,3.84405929 C158.770999,3.47748854 158.844054,3.12192025 158.990167,2.77734375 C159.13628,2.43276725 159.333529,2.1358494 159.581921,1.88658129 C159.830313,1.63731318 160.122534,1.43570229 160.458593,1.28174258 C160.794653,1.12778286 161.152624,1.05080416 161.532517,1.05080416 C161.897799,1.05080416 162.252117,1.12778286 162.595482,1.28174258 C162.938847,1.43570229 163.234721,1.63731318 163.483113,1.88658129 C163.731504,2.1358494 163.932407,2.43276725 164.085825,2.77734375 C164.239243,3.12192025 164.315951,3.47748854 164.315951,3.84405929 C164.315951,4.22529287 164.242896,4.58452681 164.096783,4.9217719 C163.950671,5.25901699 163.749768,5.55593484 163.494071,5.81253437 C163.238374,6.06913389 162.9425,6.27074478 162.60644,6.41737308 C162.270381,6.56400137 161.91241,6.63731442 161.532517,6.63731442 C160.77273,6.63731442 160.122538,6.36605614 159.581921,5.82353143 Z M177.110149,13.257549 L177.110149,24.5185461 C177.110149,27.6124032 178.381311,29.1593086 180.923673,29.1593086 C181.581181,29.1593086 182.245984,29.0200138 182.918103,28.74142 C183.590221,28.4628262 184.200233,28.085264 184.748156,27.608722 C185.296079,27.1321801 185.745369,26.5823322 186.09604,25.9591619 C186.44671,25.3359917 186.622043,24.6725086 186.622043,23.9686927 L186.622043,12.7956722 C186.622043,12.121182 186.676835,11.5749998 186.786419,11.1571091 C186.896004,10.7392185 187.064031,10.4129754 187.290506,10.1783701 C187.516981,9.94376486 187.812854,9.78247615 188.178136,9.69449918 C188.543418,9.6065222 188.98175,9.56253437 189.493145,9.56253437 C190.194486,9.56253437 190.669346,9.73482003 190.917737,10.0793965 C191.166129,10.423973 191.290323,10.9554927 191.290323,11.6739713 L191.290323,30.2370212 C191.290323,30.940837 191.144213,31.4393657 190.851987,31.7326223 C190.559761,32.0258789 190.062985,32.172505 189.361644,32.172505 C187.593679,32.172505 186.70971,30.8821954 186.70971,28.3015373 L186.70971,27.9936194 L186.622043,27.9936194 C185.833034,29.2692856 184.77008,30.2846714 183.433148,31.0398071 C182.096216,31.7949428 180.543791,32.172505 178.775826,32.172505 C174.553167,32.172505 172.441869,29.9071318 172.441869,25.3763174 L172.441869,11.6739713 C172.441869,10.9554927 172.566063,10.423973 172.814454,10.0793965 C173.062846,9.73482003 173.537706,9.56253437 174.239047,9.56253437 C175.247225,9.56253437 175.977778,9.84478961 176.430728,10.4093086 C176.883677,10.9738275 177.110149,11.9232315 177.110149,13.257549 Z" id="Tina-Liu"></path>
                            </g>
                        </g>
                    </g>
                </g>
            </g>
        </g>
    </g>
</svg>