<?xml version="1.0" encoding="UTF-8"?>
<svg width="79px" height="50px" viewBox="0 0 79 50" version="1.1" xmlns="http://www.w3.org/2000/svg" xmlns:xlink="http://www.w3.org/1999/xlink">
    <!-- Generator: Sketch 42 (36781) - http://www.bohemiancoding.com/sketch -->
    <title>Logo/Bird Only</title>
    <desc>Created with Sketch.</desc>
    <defs></defs>
    <g id="Branding" stroke="none" stroke-width="1" fill="none" fill-rule="evenodd">
        <g id="Moodboard" transform="translate(-1231.000000, -597.000000)" fill="#0F0A06">
            <g id="Logos" transform="translate(1011.000000, 597.000000)">
                <g id="Logo/Bird-Only/BW" transform="translate(220.000000, 0.000000)">
                    <path d="M69.9682122,47.5916432 C67.9350399,49.6596721 66.4389553,49.8531199 65.9737337,49.9036139 C64.7874301,50.0324917 63.8801693,49.7001485 63.3748063,49.5323267 C59.3876776,48.2084818 57.1335522,49.3980033 52.4842948,48.9135149 C44.7789317,48.1106271 39.2110274,43.6159901 38.0409779,42.6751485 C37.9234037,42.5805941 34.8879251,39.7859571 34.3290967,39.204769 C31.7318195,36.5043564 30.3464235,34.4441254 28.9650703,32.6238284 C26.631737,29.5490759 24.6943608,27.5565017 21.4399053,24.4591419 C15.6606648,18.9586982 11.9570784,16.5540926 10.1438142,15.5096554 C10.2731439,15.4987381 10.4022176,15.4862137 10.5309862,15.472137 C11.0344515,15.4196617 11.5319763,15.3326155 12.0197651,15.22783 C13.9716627,14.8033251 15.8232304,14.0344307 17.458874,12.9751898 C15.6898971,13.7936716 13.7950951,14.2731271 11.9007057,14.4114109 C11.4267783,14.4445792 10.9563162,14.4594307 10.4884119,14.4416914 C10.0186925,14.4264274 9.55136572,14.3889686 9.08874196,14.32717 C8.37582374,14.2315377 7.67368601,14.083228 6.98995705,13.8839403 C5.07785492,12.9866728 3.5134558,12.374988 1.15731456,11.0229208 C0.505829415,10.5966832 -0.0390550731,10.3353795 0.00219905236,9.67531353 C0.102199052,9.03430693 0.947991132,8.8360396 1.11606044,8.8089769 C2.19386572,8.63562706 3.57901423,8.91334983 4.37513635,8.9739934 C5.64188552,9.07044554 6.12554889,9.31450495 7.09790862,9.18026403 C8.71011984,8.95765677 8.86218255,7.83933993 10.6457634,7.07630363 C13.0773641,6.03612211 16.1514565,6.66821782 17.9889977,8.35518152 C19.4033542,9.65369637 19.3529416,11.0810066 19.9998888,12.9390924 C21.416473,17.0076568 24.8180406,19.2390099 28.2285192,21.4762211 C28.4270563,21.6064594 28.6214479,21.730371 28.812115,21.8483931 C28.8876166,21.8528523 28.9639176,21.8568249 29.0409984,21.8602761 C28.1989878,21.9943504 27.3452611,22.0727457 26.4873228,22.09283 C27.9148806,22.1967904 29.3614977,22.1393647 30.7918608,21.922203 C31.1136486,21.8732268 31.4344513,21.8156555 31.7539092,21.7497136 C32.2515461,21.6861738 32.7660536,21.5961496 33.2942783,21.4740099 C38.222001,20.3344059 41.1229911,17.1442244 42.081407,15.9872112 C46.2682057,11.8784653 50.1571495,10.0497525 52.931242,9.1390264 C54.8979911,8.49331683 57.6288492,8.14909241 62.9972486,6.99381188 C69.1874301,5.66163366 71.6342123,4.85684818 74.5979086,3.28919142 C78.0938657,1.43993399 78.9167205,0 78.9167205,0 C78.6155654,1.02318482 78.1899053,2.14372937 77.5823146,3.30330033 C75.3313245,7.59983498 71.8602849,9.99447195 69.8041793,11.1604785 C70.4736512,10.9990099 71.301209,10.7359736 72.1969185,10.2941419 C73.2696908,9.76493399 74.0900703,9.15173267 74.672166,8.6439769 C74.066968,9.79529703 73.2519515,11.1179043 72.1556644,12.4806106 C70.4040967,14.6578383 68.5527766,16.1692244 67.0881726,17.1771452 C67.8375951,16.9508251 68.746836,16.6061881 69.721671,16.0697195 C70.5361099,15.6214521 71.2078921,15.1430693 71.7431231,14.7083333 C70.3701859,17.5197195 66.7499713,23.9622937 59.1602024,28.6425743 C58.3954103,29.1141799 57.6347434,29.5404942 56.8831037,29.9259382 C56.2978838,30.178391 55.7070477,30.4192062 55.1102684,30.6456023 C54.3585357,30.9388366 53.5945918,31.2007178 52.8272651,31.4555858 C52.0582057,31.7045132 51.2822156,31.9346287 50.5003674,32.1477475 C49.7176116,32.3564934 48.9292453,32.5483251 48.1357634,32.7209323 C46.5478921,33.0606188 44.9399713,33.3250578 43.3190142,33.5064109 C44.9494598,33.462269 46.5805654,33.3340512 48.2055654,33.1274505 C49.0176116,33.0214274 49.8278426,32.8954373 50.6360109,32.7515429 C51.4431066,32.6032756 52.2478921,32.4368564 53.0490472,32.2503878 C53.4088736,32.1637457 53.7686665,32.0754321 54.1276285,31.9831972 C55.4639571,32.8641843 56.0613773,33.8231827 57.0105324,34.8676403 C57.9516215,35.9032013 59.2743113,37.3587294 60.6521991,38.2705281 C63.9399053,40.4461056 69.2136677,40.6327393 72.9038492,38.6829868 C74.0833047,38.0598845 74.6638327,37.4492409 75.0076446,37.6929703 C75.4621853,38.0151967 75.0715983,39.4899289 74.2089238,41.3023431 C74.0942829,41.3900361 73.9775516,41.4753943 73.858808,41.5583086 C73.5265472,41.7906518 73.1783624,42.0037706 72.8163162,42.1951073 L72.5422238,42.3344637 C72.4499796,42.3792657 72.3559202,42.4200248 72.2624383,42.4632591 C72.0765472,42.552863 71.8837255,42.6248102 71.6914812,42.7018729 C71.3041875,42.8457673 70.9075703,42.9751403 70.5007222,43.0706023 C70.2982469,43.1245627 70.0922238,43.1606188 69.8860357,43.2032756 C69.6788575,43.2364439 69.4709367,43.2731601 69.2610357,43.2955198 C68.4221743,43.3974175 67.5631809,43.3994802 66.7077354,43.3016254 C67.5365307,43.5343812 68.4003096,43.6734901 69.2765472,43.7078135 C69.4958542,43.7194472 69.7154086,43.7164769 69.9360357,43.7165594 C70.1558377,43.707071 70.3773723,43.7037706 70.5975868,43.6817409 C71.0397486,43.6503053 71.4801776,43.582071 71.919039,43.4950248 C72.1370258,43.4462624 72.3574878,43.4016254 72.5727519,43.3380116 C72.6810027,43.3078135 72.7902436,43.2797607 72.8980819,43.2474175 L73.2201941,43.1441172 C73.2257419,43.1422426 73.2312886,43.1403633 73.236834,43.1384795 C72.6413351,44.1647616 71.9480355,45.2117064 71.2116875,46.1597195 C71.118432,46.2797857 71.0259525,46.3959618 70.9342853,46.5083755 C70.4739793,46.6145022 70.0032625,46.6764368 69.5294515,46.6839356 C69.3814317,46.6831106 69.2305241,46.6895462 69.0832469,46.6733746 L68.859567,46.6568729 C68.783907,46.6536551 68.7123723,46.6356683 68.6379499,46.6258498 L68.4151776,46.5905363 C68.3404251,46.5787376 68.2697156,46.5553053 68.1961182,46.5382261 L67.9759037,46.4821205 C67.9026363,46.462401 67.8311017,46.4373185 67.7591545,46.4124835 C67.1862172,46.2105033 66.6437255,45.8813779 66.193808,45.4308003 C66.5354746,45.9671865 67.0146,46.4331931 67.5782139,46.7832756 C67.648841,46.8265099 67.7198806,46.8703218 67.7933129,46.9087706 L68.0161677,47.0213944 C68.0913327,47.0574505 68.1649301,47.1001073 68.2424878,47.1308003 L68.4763162,47.2232096 C68.5549466,47.252005 68.6325043,47.2891337 68.7131974,47.3110809 L68.9551116,47.3838531 C69.1167453,47.4374835 69.2816793,47.4676815 69.4472733,47.5049752 C69.6196905,47.5402604 69.7934945,47.5690403 69.9682122,47.5916432 Z" id="Combined-Shape"></path>
                </g>
            </g>
        </g>
    </g>
</svg>