<?xml version="1.0" encoding="UTF-8"?>
<svg width="204px" height="35px" viewBox="0 0 204 35" version="1.1" xmlns="http://www.w3.org/2000/svg" xmlns:xlink="http://www.w3.org/1999/xlink">
    <!-- Generator: Sketch 42 (36781) - http://www.bohemiancoding.com/sketch -->
    <title>Logo/Word Only</title>
    <desc>Created with Sketch.</desc>
    <defs></defs>
    <g id="Branding" stroke="none" stroke-width="1" fill="none" fill-rule="evenodd">
        <g id="Moodboard" transform="translate(-1231.000000, -747.000000)" fill="#0F0A06">
            <g id="Logos" transform="translate(1011.000000, 597.000000)">
                <g id="Logo/Word-Only/BW" transform="translate(220.000000, 150.000000)">
                    <g id="Logo/Word-Only">
                        <path d="M1.03638313,2.06124111 C0.603425521,2.06124111 0.386949965,1.87020474 0.386949965,1.48812628 C0.386949965,1.08539492 0.603425521,0.884032258 1.03638313,0.884032258 L14.396151,0.884032258 C14.8291086,0.884032258 15.0455842,1.08539492 15.0455842,1.48812628 C15.0455842,1.87020474 14.8291086,2.06124111 14.396151,2.06124111 L9.85011888,2.06124111 L9.85011888,3.95097112 L12.4478515,3.95097112 C12.757107,3.95097112 13.0070847,3.9716237 13.1977922,4.01292948 C13.3884997,4.05423526 13.5379709,4.12910086 13.6462103,4.23752854 C13.7544497,4.34595621 13.8291853,4.49826899 13.8704194,4.69447145 C13.9116535,4.8906739 13.9322702,5.13850487 13.9322702,5.43797178 L13.9322702,12.6406312 C13.9322702,12.9504246 13.9090764,13.2034187 13.8626881,13.3996211 C13.8162997,13.5958236 13.73641,13.7455548 13.6230163,13.8488193 C13.5096226,13.9520837 13.3575743,14.0217862 13.1668668,14.0579287 C12.9761593,14.0940713 12.7364899,14.1121423 12.4478515,14.1121423 L2.87644375,14.1121423 C2.58780535,14.1121423 2.35071307,14.0940713 2.16515981,14.0579287 C1.97960655,14.0217862 1.83013533,13.9495021 1.71674168,13.8410745 C1.60334802,13.7326468 1.52345823,13.5829156 1.47706991,13.3918763 C1.4306816,13.2008371 1.40748779,12.9504246 1.40748779,12.6406312 L1.40748779,5.43797178 C1.40748779,5.13850487 1.42810451,4.8906739 1.46933857,4.69447145 C1.51057262,4.49826899 1.58788532,4.34595621 1.70127898,4.23752854 C1.81467264,4.12910086 1.96414386,4.05423526 2.14969712,4.01292948 C2.33525038,3.9716237 2.57749683,3.95097112 2.87644375,3.95097112 L5.16492251,3.95097112 L5.16492251,2.06124111 L1.03638313,2.06124111 Z M12.4633142,12.9194438 C12.6488675,12.9194438 12.7416427,12.852323 12.7416427,12.7180792 L12.7416427,10.456599 C12.3189936,10.4669254 11.9118134,10.4720886 11.5200899,10.4720886 C11.1283663,10.4720886 10.7521112,10.4617623 10.3913132,10.4411094 C9.99958963,10.4101301 9.68776175,10.3584986 9.45582018,10.2862135 C9.2238786,10.2139284 9.04863649,10.1106655 8.93008857,9.97642171 C8.81154065,9.84217792 8.73422796,9.66663099 8.69814816,9.44977564 C8.66206835,9.23292029 8.64402873,8.9592736 8.64402873,8.62882736 L8.64402873,5.12817997 L6.35554997,5.12817997 C6.33493294,6.03690714 6.27565987,6.79588947 6.17772898,7.40514973 C6.0797981,8.01440999 5.92001852,8.53330608 5.69838546,8.96185355 C5.4767524,9.39040102 5.18296415,9.7492396 4.81701188,10.0383801 C4.45105962,10.3275205 3.98976052,10.6063304 3.43310074,10.8748179 C3.0413772,11.0606939 2.7578973,11.096836 2.58265256,10.9832451 L2.58265256,12.7180792 C2.58265256,12.852323 2.67027362,12.9194438 2.84551836,12.9194438 L12.4633142,12.9194438 Z M9.85011888,5.12817997 L9.85011888,8.39648351 C9.85011888,8.56170663 9.86042724,8.70111154 9.88104427,8.81470244 C9.9016613,8.92829334 9.96093437,9.02122995 10.0588653,9.09351506 C10.1567961,9.16580018 10.3062674,9.21743163 10.5072834,9.24841097 C10.7082994,9.2793903 10.9892022,9.29487974 11.3500002,9.29487974 C11.5149365,9.29487974 11.7185266,9.29229816 11.9607767,9.28713494 C12.2030267,9.28197172 12.4633128,9.26906386 12.7416427,9.24841097 L12.7416427,5.34503424 C12.7416427,5.200464 12.6488675,5.12817997 12.4633142,5.12817997 L9.85011888,5.12817997 Z M2.84551836,5.12817997 C2.77335876,5.12817997 2.7115086,5.14625098 2.65996603,5.18239354 C2.60842346,5.2185361 2.58265256,5.27274912 2.58265256,5.34503424 L2.58265256,10.0074009 C2.64450364,9.96609511 2.72181634,9.9196268 2.81459297,9.86799457 C3.27847612,9.65113923 3.65988543,9.43428713 3.95883235,9.21743179 C4.25777927,9.00057644 4.49487154,8.72434818 4.67011629,8.38873871 C4.84536103,8.05312924 4.96906135,7.62716977 5.04122095,7.11084752 C5.11338055,6.59452526 5.15461399,5.93364269 5.16492251,5.12817997 L2.84551836,5.12817997 Z M6.35554997,3.95097112 L8.64402873,3.95097112 L8.64402873,2.06124111 L6.35554997,2.06124111 L6.35554997,3.95097112 Z M14.8136438,29.9377374 C14.7930267,30.4437333 14.7621016,30.9290689 14.7208676,31.3937589 C14.6796335,31.858449 14.6126292,32.3282952 14.5198526,32.8033116 C14.3755334,33.484857 14.107516,33.9805189 13.7157925,34.2903123 C13.3240689,34.6001056 12.8034967,34.755 12.1540603,34.755 C11.9375815,34.755 11.7107976,34.736929 11.4737018,34.7007864 C11.236606,34.6646439 10.978897,34.615594 10.7005671,34.5536353 C10.4325457,34.4916767 10.2521494,34.3909953 10.1593728,34.2515883 C10.0665961,34.1121813 10.0459794,33.9392159 10.097522,33.732687 C10.1696816,33.3712615 10.4428531,33.247346 10.9170448,33.3609369 C11.4840131,33.4951807 11.9324267,33.5623016 12.2622992,33.5623016 C12.6952568,33.5623016 13.0096618,33.4074072 13.2055235,33.0976138 C13.4013853,32.7878205 13.5302398,32.2973217 13.5920909,31.6261028 C13.5096228,31.6674086 13.3910767,31.6880611 13.2364489,31.6880611 L9.04605878,31.6880611 C8.81927146,31.6880611 8.65949188,31.646756 8.56671525,31.5641444 C8.47393862,31.4815329 8.427551,31.3472911 8.427551,31.1614151 C8.427551,30.9548862 8.47393862,30.8077365 8.56671525,30.7199618 C8.65949188,30.632187 8.81927146,30.5883002 9.04605878,30.5883002 L13.1900609,30.5883002 C13.3962311,30.5883002 13.5508565,30.6244423 13.6539417,30.6967274 C13.6848672,30.3249753 13.7003298,30.0100235 13.7003298,29.7518624 C13.7003298,29.3697839 13.6719818,29.1296976 13.6152849,29.0315964 C13.5585881,28.9334952 13.46839,28.8844453 13.3446878,28.8844453 L10.0047458,28.8844453 C9.45839456,28.8844453 9.08213943,28.7708561 8.87596914,28.5436743 C8.66979885,28.3164925 8.56671525,27.9292567 8.56671525,27.3819551 L8.56671525,22.6421405 C8.56671525,22.1774504 8.65175922,21.8470091 8.82184971,21.6508067 C8.9919402,21.4546042 9.31407644,21.3565045 9.7882681,21.3565045 L10.3294624,21.3565045 C10.4325475,21.1706285 10.5253228,21.0002447 10.6077909,20.845348 C10.690259,20.6904513 10.7572634,20.5458833 10.8088059,20.4116395 C10.870657,20.2670692 10.9505468,20.1612248 11.0484777,20.0941029 C11.1464086,20.026981 11.2881485,20.0192363 11.4737018,20.0708685 C11.6798721,20.1225007 11.8190349,20.2102742 11.8911945,20.3341915 C11.9633541,20.4581089 11.9582,20.6181664 11.8757318,20.8143688 L11.8602691,20.8143688 C11.8190351,20.9073068 11.7752246,21.0002434 11.7288362,21.0931814 C11.6824479,21.1861194 11.6334832,21.2738929 11.5819406,21.3565045 L12.7725681,21.3565045 C13.0199725,21.3565045 13.2312938,21.3771571 13.4065386,21.4184628 C13.5817833,21.4597686 13.7235233,21.5501237 13.8317627,21.6895307 C13.9400021,21.8289377 14.0173148,22.0380451 14.0637031,22.3168591 C14.1100914,22.5956731 14.1332852,22.9674195 14.1332852,23.4321096 C14.1332852,23.72125 14.1255539,24.0439466 14.1100912,24.400209 C14.0946284,24.7564713 14.0765888,25.0533521 14.0559717,25.2908604 C14.0044292,25.9827322 13.8678434,26.509373 13.6462103,26.8707986 C13.4245773,27.2322242 13.071516,27.4180974 12.5870158,27.4284238 C12.411771,27.4284238 12.2030267,27.4103528 11.9607767,27.3742103 C11.7185266,27.3380677 11.3963903,27.2786915 10.9943583,27.19608 C10.7469539,27.1444478 10.5897514,27.046348 10.5227461,26.9017778 C10.4557407,26.7572075 10.4480095,26.59715 10.499552,26.4216005 C10.6026372,26.0911542 10.8655004,25.9878913 11.2881495,26.1118087 C11.5355538,26.1840938 11.741721,26.2357252 11.9066572,26.2667046 C12.0715935,26.2976839 12.2262189,26.3183365 12.3705381,26.3286629 C12.4942402,26.3389894 12.5921696,26.3131737 12.6643292,26.251215 C12.7364888,26.1892563 12.7931848,26.0859934 12.8344189,25.9414232 C12.8756529,25.7968529 12.906578,25.6058166 12.927195,25.3683083 C12.9478121,25.1308001 12.9684288,24.841664 12.9890458,24.5008913 C12.9993543,24.3253417 13.0045085,24.1472132 13.0045085,23.9665004 L13.0045085,23.5095575 C13.0045085,23.2513964 12.9993543,23.0526153 12.9890458,22.9132083 C12.9787373,22.7738013 12.9581206,22.6705384 12.927195,22.6034165 C12.8962695,22.5362946 12.8601902,22.4949894 12.8189562,22.4794998 C12.7777221,22.4640101 12.7261803,22.4562654 12.6643292,22.4562654 L9.85011888,22.4562654 C9.78826779,22.4562654 9.74188018,22.4717548 9.71095463,22.5027342 C9.68002909,22.5337135 9.66456655,22.6008344 9.66456655,22.7040988 L9.66456655,27.2890175 C9.66456655,27.5161993 9.70064581,27.6556042 9.77280541,27.7072365 C9.84496501,27.7588687 10.0356697,27.7846844 10.3449251,27.7846844 L13.4683893,27.7846844 C13.6951767,27.7846844 13.8961897,27.8079186 14.0714344,27.8543876 C14.2466792,27.9008566 14.3909962,27.9989563 14.5043899,28.1486898 C14.6177835,28.2984232 14.7002504,28.5152753 14.751793,28.7992526 C14.8033355,29.0832298 14.8239523,29.462721 14.8136438,29.9377374 Z M4.02068313,22.3788174 C3.81451284,22.3788174 3.66761871,22.3323491 3.57999634,22.2394111 C3.49237397,22.1464731 3.44856344,22.001905 3.44856344,21.8057026 C3.44856344,21.6095001 3.49237397,21.4649321 3.57999634,21.3719941 C3.66761871,21.2790561 3.81451284,21.2325878 4.02068313,21.2325878 L7.76265515,21.2325878 C7.96882544,21.2325878 8.11314247,21.2790561 8.19561059,21.3719941 C8.27807871,21.4649321 8.31931214,21.6095001 8.31931214,21.8057026 C8.31931214,22.001905 8.27807871,22.1464731 8.19561059,22.2394111 C8.11314247,22.3323491 7.96882544,22.3788174 7.76265515,22.3788174 L6.47925152,22.3788174 L6.47925152,31.0065192 C6.72665587,30.8103167 6.9740565,30.5934646 7.22146085,30.3559564 C7.42763114,30.1597539 7.61318161,30.0435832 7.77811784,30.0074406 C7.94305407,29.971298 8.09767947,30.0358374 8.24199867,30.2010605 C8.38631787,30.3353043 8.44559094,30.4927802 8.41981966,30.673493 C8.39404837,30.8542058 8.27807932,31.0323343 8.07190904,31.2078838 C7.75234509,31.4763714 7.45082557,31.7216208 7.16734142,31.9436394 C6.88385727,32.1656579 6.59006902,32.3747653 6.28596784,32.5709678 C5.98186667,32.7671702 5.65457624,32.9582066 5.30408675,33.1440826 C4.95359726,33.3299586 4.55672541,33.5261581 4.11345929,33.732687 C3.84543792,33.8566044 3.63669363,33.8927464 3.48722017,33.8411142 C3.33774671,33.789482 3.22693185,33.6758928 3.15477225,33.5003432 C3.09292116,33.3247936 3.09549825,33.1698993 3.16250359,33.0356555 C3.22950894,32.9014117 3.3918656,32.7774962 3.64957846,32.6639053 C3.97945093,32.5193351 4.28097045,32.3799302 4.55414608,32.2456864 C4.82732171,32.1114426 5.08245362,31.9720377 5.31954945,31.8274675 L5.31954945,22.3788174 L4.02068313,22.3788174 Z M3.64957846,29.5350081 C3.49495075,29.9790452 3.34547953,30.3946784 3.20116033,30.7819201 C3.05684113,31.1691618 2.90736991,31.5460714 2.75274219,31.9126602 C2.59811448,32.279249 2.4383349,32.6406692 2.27339867,32.9969315 C2.10846244,33.3531939 1.92806614,33.7171956 1.73220437,34.0889476 C1.58788517,34.3677616 1.43841395,34.5329823 1.28378624,34.5846145 C1.12915852,34.6362467 0.948762223,34.5897784 0.742591934,34.4452082 C0.587964218,34.3316173 0.51838279,34.1973755 0.533845561,34.0424789 C0.549308333,33.8875822 0.634352301,33.6810564 0.788980017,33.4228952 C1.18070357,32.7723292 1.51830235,32.1114466 1.80178649,31.4402277 C2.08527064,30.7690088 2.34555673,30.0203527 2.58265256,29.1942371 C2.70635473,28.7192206 2.94860118,28.5281843 3.30939919,28.6211223 C3.53618651,28.6727545 3.67019518,28.7734358 3.71142924,28.9231693 C3.7526633,29.0729027 3.73204658,29.276847 3.64957846,29.5350081 Z M3.85059349,23.6024951 C3.70627429,23.7470653 3.55680307,23.8116046 3.40217536,23.7961149 C3.24754764,23.7806253 3.0774597,23.6644545 2.89190644,23.4475992 C2.33524666,22.8073596 1.75797852,22.2342505 1.16008468,21.7282546 C0.953914392,21.5527051 0.840522435,21.3952291 0.819905406,21.2558221 C0.799288377,21.1164151 0.866292716,20.9641024 1.02092043,20.7988792 C1.1446226,20.6646354 1.2734771,20.594933 1.40748779,20.5897698 C1.54149848,20.5846065 1.71158641,20.6749616 1.9177567,20.8608376 C2.24762916,21.1499781 2.56718832,21.4468589 2.87644375,21.751489 C3.18569918,22.0561192 3.48464161,22.3684894 3.77328002,22.6886092 C3.94852476,22.8848117 4.0413,23.0500323 4.05160852,23.1842761 C4.06191703,23.3185199 3.99491269,23.4579248 3.85059349,23.6024951 Z M3.37124997,27.6762573 C3.22693076,27.8208275 3.07745955,27.8776221 2.92283183,27.8466428 C2.76820412,27.8156634 2.60327036,27.7124005 2.42802561,27.536851 C2.21154681,27.3199956 1.94610655,27.0799094 1.63169686,26.816585 C1.31728717,26.5532607 0.984842564,26.2925218 0.634353074,26.0343607 C0.232321012,25.7452203 0.165316674,25.4405947 0.433338048,25.1204749 C0.57765725,24.9552518 0.709088837,24.8700599 0.827636753,24.8648967 C0.946184669,24.8597334 1.12400388,24.9449253 1.36109971,25.1204749 C1.7115892,25.3889625 2.05949634,25.6651907 2.40483157,25.949168 C2.75016681,26.2331452 3.02591543,26.4783946 3.23208572,26.6849235 C3.40733046,26.8604731 3.51041406,27.0334384 3.5413396,27.2038248 C3.57226515,27.3742111 3.51556917,27.531687 3.37124997,27.6762573 Z M12.5406277,24.4854017 C12.7055639,24.6506248 12.7854537,24.818427 12.7802995,24.9888134 C12.7751452,25.1591997 12.7004096,25.3011862 12.5560904,25.4147771 C12.4426967,25.5077151 12.308688,25.538694 12.1540603,25.5077146 C11.9994326,25.4767353 11.8499614,25.3786356 11.7056422,25.2134124 C11.561323,25.0481893 11.4376227,24.9062028 11.3345375,24.7874487 C11.2314524,24.6686946 11.1309459,24.5551054 11.033015,24.4466777 C10.9350841,24.33825 10.8320005,24.229824 10.7237611,24.1213963 C10.6155217,24.0129687 10.4840901,23.8916347 10.3294624,23.757391 C10.1542177,23.6024943 10.0614424,23.4424368 10.0511339,23.2772137 C10.0408254,23.1119905 10.0923672,22.9725856 10.2057609,22.8589947 C10.3191545,22.7557303 10.448009,22.709262 10.5923282,22.7195884 C10.7366474,22.7299149 10.9015812,22.8228515 11.0871344,22.998401 C11.2211451,23.1223184 11.3422683,23.2359076 11.4505077,23.339172 C11.5587471,23.4424365 11.6669849,23.5508625 11.7752243,23.6644534 C11.8834637,23.7780443 11.9994328,23.8993782 12.1231349,24.0284588 C12.2468371,24.1575393 12.386,24.3098521 12.5406277,24.4854017 Z" id="西-鸿"></path>
                        <path d="M50.0078904,2.79404138 L42.8589018,2.79404138 L42.8589018,31.253119 C42.8589018,32.341723 42.6260381,33.092071 42.1603036,33.5041853 C41.6945691,33.9162997 40.941643,34.1223538 39.9015026,34.1223538 C38.4422012,34.1223538 37.7125615,33.3292399 37.7125615,31.7429883 L37.7125615,2.79404138 L30.5635728,2.79404138 L30.5635728,6.17647273 C30.5635728,7.29617974 30.3345901,8.09318146 29.8766179,8.56750179 C29.4186457,9.04182212 28.7239355,9.27897873 27.7924665,9.27897873 C26.426312,9.27897873 25.743245,8.48586483 25.743245,6.89961323 L25.743245,2.02424666 C25.743245,1.32442978 25.9722277,0.854004374 26.4301999,0.612956337 C26.8881722,0.371908299 27.6139309,0.251386089 28.6074978,0.251386089 L51.9639655,0.251386089 C52.9575324,0.251386089 53.6832911,0.371908299 54.1412633,0.612956337 C54.5992356,0.854004374 54.8282183,1.32442978 54.8282183,2.02424666 L54.8282183,6.89961323 C54.8282183,7.73939349 54.6613326,8.34589235 54.3275562,8.71912802 C53.9937798,9.09236369 53.4775985,9.27897873 52.7789968,9.27897873 C51.8475278,9.27897873 51.1528176,9.04182212 50.6948454,8.56750179 C50.2368731,8.09318146 50.0078904,7.29617974 50.0078904,6.17647273 L50.0078904,2.79404138 Z M65.9303858,13.3845506 L65.9303858,30.8798852 C65.9303858,31.5641506 65.876051,32.11622 65.7673796,32.5361102 C65.6587082,32.9560003 65.4840604,33.2825766 65.2434309,33.5158489 C65.0028014,33.7491212 64.6884353,33.9085215 64.3003233,33.9940547 C63.9122112,34.0795879 63.4387216,34.1223538 62.8798402,34.1223538 C62.134665,34.1223538 61.6301269,33.9396266 61.3662107,33.5741667 C61.1022945,33.2087068 60.9703383,32.6449738 60.9703383,31.882951 L60.9703383,12.3814847 C60.9703383,11.6194619 61.1022945,11.055729 61.3662107,10.6902691 C61.6301269,10.3248091 62.134665,10.1420819 62.8798402,10.1420819 C63.9199805,10.1420819 64.6884309,10.4025654 65.1852144,10.9235402 C65.6819978,11.444515 65.9303858,12.2648436 65.9303858,13.3845506 Z M61.2730642,6.17647273 C60.6986584,5.60106774 60.4114598,4.90126136 60.4114598,4.07703258 C60.4114598,3.68824543 60.489081,3.31112754 60.6443258,2.94566761 C60.7995707,2.58020769 61.009148,2.26529481 61.2730642,2.00091955 C61.5369805,1.73654428 61.8474655,1.52271455 62.2045286,1.35942395 C62.5615917,1.19613334 62.9419358,1.11448926 63.3455723,1.11448926 C63.7336844,1.11448926 64.1101475,1.19613334 64.4749728,1.35942395 C64.8397982,1.52271455 65.1541642,1.73654428 65.4180805,2.00091955 C65.6819967,2.26529481 65.8954551,2.58020769 66.0584622,2.94566761 C66.2214692,3.31112754 66.3029716,3.68824543 66.3029716,4.07703258 C66.3029716,4.48137123 66.2253503,4.86237692 66.0701055,5.22006111 C65.9148606,5.57774529 65.7014022,5.89265817 65.4297238,6.16480918 C65.1580453,6.43696019 64.8436792,6.65078991 64.4866161,6.80630478 C64.129553,6.96181964 63.7492089,7.0395759 63.3455723,7.0395759 C62.5382992,7.0395759 61.8474701,6.75187772 61.2730642,6.17647273 Z M74.9367587,31.882951 L74.9367587,12.1948678 C74.9367587,11.432845 75.0920012,10.9002146 75.4024908,10.5969606 C75.7129805,10.2937066 76.240805,10.1420819 76.9859802,10.1420819 C77.8708757,10.1420819 78.5617048,10.4842095 79.0584883,11.1684749 C79.5552717,11.8527403 79.8036597,12.879123 79.8036597,14.2476538 L79.8036597,14.5742333 L79.8968061,14.5742333 C80.7351282,13.221254 81.8567553,12.1443298 83.261721,11.3434282 C84.6666867,10.5425267 86.3239004,10.1420819 88.2334118,10.1420819 C92.7199873,10.1420819 94.9632415,12.5447505 94.9632415,17.3501597 L94.9632415,31.882951 C94.9632415,32.6449738 94.8312853,33.2087068 94.5673691,33.5741667 C94.3034529,33.9396266 93.7989148,34.1223538 93.0537396,34.1223538 C91.9825503,34.1223538 91.2063378,33.8229922 90.7250788,33.22426 C90.2438199,32.6255278 90.003194,31.6185841 90.003194,30.2033989 L90.003194,18.2599171 C90.003194,14.9785535 88.6525842,13.3378964 85.9513242,13.3378964 C85.2527225,13.3378964 84.5463691,13.4856333 83.8322429,13.7811115 C83.1181167,14.0765897 82.4699792,14.4770345 81.8878111,14.9824578 C81.305643,15.4878811 80.8282723,16.0749409 80.4556847,16.7436548 C80.0830971,17.4123687 79.8968061,18.1121751 79.8968061,18.843095 L79.8968061,30.7399225 C79.8968061,31.4241879 79.8424713,31.984033 79.7337999,32.4194746 C79.6251285,32.8549162 79.4504807,33.1970438 79.2098512,33.4458676 C78.9692217,33.6946913 78.6548557,33.8696429 78.2667436,33.9707276 C77.8786315,34.0718123 77.4051419,34.1223538 76.8462605,34.1223538 C76.1010853,34.1223538 75.5965472,33.9396266 75.332631,33.5741667 C75.0687148,33.2087068 74.9367587,32.6449738 74.9367587,31.882951 Z M117.708713,29.6202211 L117.568993,29.5735668 C116.528853,31.1598184 115.333486,32.314499 113.982856,33.0376431 C112.632226,33.7607872 111.025466,34.1223538 109.162528,34.1223538 C107.982667,34.1223538 106.942542,33.9707291 106.042122,33.6674751 C105.141702,33.3642211 104.388776,32.9326739 103.783321,32.3728204 C103.177867,31.8129669 102.723782,31.1364874 102.421055,30.3433616 C102.118327,29.5502358 101.966966,28.6638143 101.966966,27.6840707 C101.966966,26.6576726 102.141614,25.6429534 102.490915,24.6398825 C102.840216,23.6368116 103.465067,22.7387268 104.365487,21.945601 C105.265907,21.1524752 106.492322,20.5148738 108.044771,20.0327777 C109.597219,19.5506816 111.576561,19.3096372 113.982856,19.3096372 L117.475847,19.3096372 L117.475847,17.9799918 C117.475847,16.8913878 117.382701,15.969976 117.196408,15.2157289 C117.010114,14.4614818 116.726796,13.8510952 116.346446,13.3845506 C115.966097,12.918006 115.473202,12.5797662 114.867747,12.3698212 C114.262292,12.1598761 113.540414,12.0549052 112.702092,12.0549052 C111.118595,12.0549052 109.721413,12.723609 108.510503,14.0610368 C107.485887,15.1807439 106.515621,15.740589 105.599677,15.740589 C105.05632,15.740589 104.641046,15.5850764 104.353843,15.2740467 C104.06664,14.963017 103.923041,14.5742357 103.923041,14.1076911 C103.923041,13.5011831 104.21024,12.9530014 104.784646,12.4631296 C105.359051,11.9732578 106.108097,11.5572618 107.031803,11.2151291 C107.95551,10.8729964 108.995635,10.6086251 110.152209,10.4220073 C111.308783,10.2353894 112.476982,10.1420819 113.656843,10.1420819 C115.380061,10.1420819 116.808292,10.3209213 117.941579,10.6786055 C119.074866,11.0362897 119.979154,11.5728079 120.654469,12.2881763 C121.329784,13.0035446 121.803274,13.9016295 122.074952,14.9824578 C122.34663,16.0632861 122.482468,17.334601 122.482468,18.7964407 L122.482468,31.882951 C122.482468,32.6449738 122.350511,33.2087068 122.086595,33.5741667 C121.822679,33.9396266 121.333665,34.1223538 120.619539,34.1223538 C119.579399,34.1223538 118.834235,33.7685628 118.384025,33.0609702 C117.933815,32.3533776 117.708713,31.2064727 117.708713,29.6202211 Z M117.52242,21.3157689 L114.751314,21.3157689 C109.535088,21.3157689 106.927014,23.2130218 106.927014,27.0075844 C106.927014,29.6202341 108.308672,30.9265394 111.07203,30.9265394 C111.677485,30.9265394 112.352789,30.809905 113.097965,30.5766327 C113.84314,30.3433604 114.545612,29.9934572 115.205403,29.5269126 C115.865193,29.060368 116.416304,28.477196 116.858752,27.7773792 C117.3012,27.0775623 117.52242,26.2611215 117.52242,25.3280323 L117.52242,21.3157689 Z M160.363125,25.1880696 C161.72928,25.1880696 162.412347,25.9811835 162.412347,27.5674351 L162.412347,32.5827644 C162.412347,33.1426179 162.179483,33.5391748 161.713749,33.7724471 C161.248014,34.0057194 160.526137,34.1223538 159.548094,34.1223538 L143.806347,34.1223538 C142.347046,34.1223538 141.617406,33.3292399 141.617406,31.7429883 L141.617406,2.63075159 C141.617406,1.74431687 141.780411,1.12615457 142.106425,0.776246126 C142.432439,0.426337685 142.968026,0.251386089 143.713201,0.251386089 C144.706768,0.251386089 145.463575,0.562411149 145.983645,1.1844706 C146.503715,1.80653005 146.763746,2.72405398 146.763746,3.93706991 L146.763746,31.5796985 L157.592019,31.5796985 L157.592019,28.2905756 C157.592019,27.1708686 157.821002,26.3738669 158.278974,25.8995466 C158.736946,25.4252262 159.431656,25.1880696 160.363125,25.1880696 Z M174.213113,13.3845506 L174.213113,30.8798852 C174.213113,31.5641506 174.158778,32.11622 174.050106,32.5361102 C173.941435,32.9560003 173.766787,33.2825766 173.526158,33.5158489 C173.285528,33.7491212 172.971162,33.9085215 172.58305,33.9940547 C172.194938,34.0795879 171.721448,34.1223538 171.162567,34.1223538 C170.417392,34.1223538 169.912854,33.9396266 169.648937,33.5741667 C169.385021,33.2087068 169.253065,32.6449738 169.253065,31.882951 L169.253065,12.3814847 C169.253065,11.6194619 169.385021,11.055729 169.648937,10.6902691 C169.912854,10.3248091 170.417392,10.1420819 171.162567,10.1420819 C172.202707,10.1420819 172.971158,10.4025654 173.467941,10.9235402 C173.964725,11.444515 174.213113,12.2648436 174.213113,13.3845506 Z M169.555791,6.17647273 C168.981385,5.60106774 168.694187,4.90126136 168.694187,4.07703258 C168.694187,3.68824543 168.771808,3.31112754 168.927053,2.94566761 C169.082297,2.58020769 169.291875,2.26529481 169.555791,2.00091955 C169.819707,1.73654428 170.130192,1.52271455 170.487255,1.35942395 C170.844318,1.19613334 171.224663,1.11448926 171.628299,1.11448926 C172.016411,1.11448926 172.392874,1.19613334 172.7577,1.35942395 C173.122525,1.52271455 173.436891,1.73654428 173.700807,2.00091955 C173.964723,2.26529481 174.178182,2.58020769 174.341189,2.94566761 C174.504196,3.31112754 174.585698,3.68824543 174.585698,4.07703258 C174.585698,4.48137123 174.508077,4.86237692 174.352832,5.22006111 C174.197587,5.57774529 173.984129,5.89265817 173.712451,6.16480918 C173.440772,6.43696019 173.126406,6.65078991 172.769343,6.80630478 C172.41228,6.96181964 172.031936,7.0395759 171.628299,7.0395759 C170.821026,7.0395759 170.130197,6.75187772 169.555791,6.17647273 Z M188.179533,14.0610368 L188.179533,26.0045186 C188.179533,29.2858822 189.530143,30.9265394 192.231403,30.9265394 C192.930004,30.9265394 193.636358,30.7788025 194.350484,30.4833242 C195.06461,30.187846 195.712748,29.7874012 196.294916,29.2819779 C196.877084,28.7765546 197.354455,28.1933826 197.727042,27.5324445 C198.09963,26.8715063 198.285921,26.1678121 198.285921,25.4213408 L198.285921,13.5711675 C198.285921,12.8557991 198.344137,12.2765149 198.46057,11.8332976 C198.577004,11.3900802 198.755533,11.0440648 198.996162,10.7952411 C199.236792,10.5464173 199.551158,10.3753535 199.93927,10.2820446 C200.327382,10.1887357 200.79311,10.1420819 201.336466,10.1420819 C202.081642,10.1420819 202.58618,10.3248091 202.850096,10.6902691 C203.114012,11.055729 203.245968,11.6194619 203.245968,12.3814847 L203.245968,32.0695679 C203.245968,32.8160392 203.090726,33.3447818 202.780236,33.6558116 C202.469746,33.9668413 201.941922,34.1223538 201.196747,34.1223538 C199.318284,34.1223538 198.379067,32.7538436 198.379067,30.016782 L198.379067,29.6902024 L198.285921,29.6902024 C197.447599,31.0431817 196.31821,32.120106 194.897719,32.9210075 C193.477229,33.7219091 191.827778,34.1223538 189.949315,34.1223538 C185.46274,34.1223538 183.219485,31.7196852 183.219485,26.914276 L183.219485,12.3814847 C183.219485,11.6194619 183.351442,11.055729 183.615358,10.6902691 C183.879274,10.3248091 184.383812,10.1420819 185.128987,10.1420819 C186.200177,10.1420819 186.976389,10.4414435 187.457648,11.0401757 C187.938907,11.638908 188.179533,12.6458516 188.179533,14.0610368 Z" id="Tina-Liu"></path>
                    </g>
                </g>
            </g>
        </g>
    </g>
</svg>