<?xml version="1.0" encoding="utf-8"?>
<!-- Generator: Adobe Illustrator 21.0.0, SVG Export Plug-In . SVG Version: 6.00 Build 0)  -->
<svg version="1.1" id="Capa_1" xmlns="http://www.w3.org/2000/svg" xmlns:xlink="http://www.w3.org/1999/xlink" x="0px" y="0px"
	 viewBox="0 0 72 346.4" style="enable-background:new 0 0 72 346.4;" xml:space="preserve">
<g>
	<path d="M2.7,287.9C7,309.3,18,327.7,31.5,344.2c3.1,3.7,9.2,2.4,11.6-1.2c11-19.6,20.2-41,22.6-63.6c0.6-6.7-9.8-7.3-11-1.2
		c-4.3,16.5-10.4,32.4-18.4,47.7c-3.1-4.3-6.1-9.2-8.6-14.1c4.3,4.3,14.1,2.4,14.1-5.5c0.6-99.8,23.3-202.6,5.5-301.1
		c-1.2-8-14.7-6.1-14.1,1.8c8,100.4-7.3,198.9-8,299.3c0,0.6,0,1.2,0,1.2c-3.7-7.3-6.1-14.7-8-23.3C16.2,274.4,0.9,278.1,2.7,287.9z
		"/>
</g>
</svg>
